<svg viewBox="0 0 800 500" xmlns="http://www.w3.org/2000/svg">
  <!-- Definitions for gradients, filters and patterns -->
  <defs>
    <!-- Background gradient -->
    <linearGradient id="bgGradient" x1="0%" y1="0%" x2="100%" y2="100%">
      <stop offset="0%" stop-color="#050505" />
      <stop offset="100%" stop-color="#0a0a0a" />
    </linearGradient>
    
    <!-- Noise pattern for texture -->
    <pattern id="noise" x="0" y="0" width="100" height="100" patternUnits="userSpaceOnUse">
      <rect width="100" height="100" fill="#000000"/>
      <rect x="0" y="0" width="1" height="1" fill="#222222" opacity="0.3"/>
      <rect x="10" y="10" width="1" height="1" fill="#222222" opacity="0.3"/>
      <rect x="20" y="20" width="1" height="1" fill="#222222" opacity="0.3"/>
      <rect x="30" y="30" width="1" height="1" fill="#222222" opacity="0.3"/>
      <rect x="40" y="40" width="1" height="1" fill="#222222" opacity="0.3"/>
      <rect x="50" y="50" width="1" height="1" fill="#222222" opacity="0.3"/>
      <rect x="60" y="60" width="1" height="1" fill="#222222" opacity="0.3"/>
      <rect x="70" y="70" width="1" height="1" fill="#222222" opacity="0.3"/>
      <rect x="80" y="80" width="1" height="1" fill="#222222" opacity="0.3"/>
      <rect x="90" y="90" width="1" height="1" fill="#222222" opacity="0.3"/>
    </pattern>
    
    <!-- Water gradient for Nile -->
    <linearGradient id="waterGradient" x1="0%" y1="0%" x2="100%" y2="100%">
      <stop offset="0%" stop-color="#0c1218" />
      <stop offset="100%" stop-color="#0a0f14" />
    </linearGradient>
    
    <!-- Desert gradient -->
    <linearGradient id="desertGradient" x1="0%" y1="0%" x2="100%" y2="100%">
      <stop offset="0%" stop-color="#0d0c0a" />
      <stop offset="100%" stop-color="#0e0d0b" />
    </linearGradient>
    
    <!-- Urban area gradient -->
    <linearGradient id="urbanGradient" x1="0%" y1="0%" x2="0%" y2="100%">
      <stop offset="0%" stop-color="#0c0c0c" />
      <stop offset="100%" stop-color="#0f0f0f" />
    </linearGradient>
    
    <!-- Glow filter for highlight -->
    <filter id="glow" x="-50%" y="-50%" width="200%" height="200%">
      <feGaussianBlur stdDeviation="10" result="blur"/>
      <feComposite in="SourceGraphic" in2="blur" operator="over"/>
    </filter>
    
    <!-- Drop shadow for 3D effect -->
    <filter id="shadow" x="-20%" y="-20%" width="140%" height="140%">
      <feGaussianBlur in="SourceAlpha" stdDeviation="4"/>
      <feOffset dx="2" dy="2" result="offsetblur"/>
      <feComponentTransfer>
        <feFuncA type="linear" slope="0.5"/>
      </feComponentTransfer>
      <feMerge>
        <feMergeNode/>
        <feMergeNode in="SourceGraphic"/>
      </feMerge>
    </filter>
    
    <!-- Pyramid pattern -->
    <pattern id="pyramidTexture" patternUnits="userSpaceOnUse" width="10" height="10">
      <rect width="10" height="10" fill="#161615"/>
      <path d="M0,0 L10,10" stroke="#1a1915" stroke-width="0.2"/>
      <path d="M10,0 L0,10" stroke="#1a1915" stroke-width="0.2"/>
    </pattern>
  </defs>
  
  <!-- Dark background with gradient -->
  <rect width="800" height="500" fill="url(#bgGradient)"/>
  
  <!-- Subtle noise texture overlay -->
  <rect width="800" height="500" fill="url(#noise)" opacity="0.15"/>
  
  <!-- Desert region with 3D effect -->
  <path d="M50,50 C100,30 200,20 300,30 C400,40 500,80 550,100 C600,120 650,150 700,200 C750,250 780,300 780,350 C780,400 750,450 700,480 C650,490 600,485 550,480 C500,475 450,470 400,460 C350,450 300,430 250,420 C200,410 150,400 100,380 C50,360 30,340 30,300 C30,250 40,200 50,150 C60,100 50,70 50,50 Z" 
        fill="url(#desertGradient)" filter="url(#shadow)" opacity="0.6"/>
  
  <!-- Nile River with flow texture -->
  <path d="M640,50 C700,150 720,200 700,300 C680,400 630,450 620,500" 
        fill="url(#waterGradient)" stroke="#151c22" stroke-width="1" filter="url(#shadow)"/>
  
  <!-- Curved flow lines in Nile -->
  <path d="M650,100 C655,120 660,140 655,160 C650,180 645,200 650,220" stroke="#131b23" stroke-width="0.8" fill="none"/>
  <path d="M670,200 C675,220 673,240 668,260" stroke="#131b23" stroke-width="0.8" fill="none"/>
  <path d="M690,250 C685,270 680,290 685,310" stroke="#131b23" stroke-width="0.8" fill="none"/>
  
  <!-- Main roads with 3D depth -->
  <g stroke-linecap="round">
    <!-- Major highways with glow -->
    <path d="M150,250 L650,250" stroke="#262626" stroke-width="5" opacity="0.7"/>
    <path d="M150,250 L650,250" stroke="#353535" stroke-width="3"/>
    
    <path d="M400,80 L400,450" stroke="#262626" stroke-width="5" opacity="0.7"/>
    <path d="M400,80 L400,450" stroke="#353535" stroke-width="3"/>
    
    <!-- Secondary roads with shadow effect -->
    <path d="M200,150 L600,150" stroke="#202020" stroke-width="3" opacity="0.7"/>
    <path d="M200,150 L600,150" stroke="#303030" stroke-width="2"/>
    
    <path d="M250,100 L250,400" stroke="#202020" stroke-width="3" opacity="0.7"/>
    <path d="M250,100 L250,400" stroke="#303030" stroke-width="2"/>
    
    <!-- Grid of roads with 3D effect -->
    <g stroke="#1a1a1a" stroke-width="1" opacity="0.9">
      <path d="M300,100 L300,400"/>
      <path d="M350,100 L350,400"/>
      <path d="M450,100 L450,400"/>
      <path d="M500,100 L500,400"/>
      <path d="M550,100 L550,400"/>
      
      <path d="M200,200 L600,200"/>
      <path d="M200,300 L600,300"/>
      <path d="M200,350 L600,350"/>
      <path d="M200,400 L600,400"/>
    </g>
    
    <!-- Minor roads with fading effect -->
    <g stroke="#161616" stroke-width="0.7" opacity="0.6">
      <path d="M275,150 L275,350"/>
      <path d="M325,150 L325,350"/>
      <path d="M375,150 L375,350"/>
      <path d="M425,150 L425,350"/>
      <path d="M475,150 L475,350"/>
      <path d="M525,150 L525,350"/>
      <path d="M250,175 L550,175"/>
      <path d="M250,225 L550,225"/>
      <path d="M250,275 L550,275"/>
      <path d="M250,325 L550,325"/>
    </g>
  </g>
  
  <!-- Urban areas with 3D elevation -->
  <g>
    <!-- Downtown area -->
    <path d="M420,280 C440,270 500,260 530,270 C560,280 570,310 560,330 C550,350 520,370 490,375 C460,380 430,370 420,350 C410,330 410,290 420,280 Z" 
          fill="url(#urbanGradient)" filter="url(#shadow)" opacity="0.8"/>
    
    <!-- Residential areas -->
    <path d="M200,300 C220,290 280,290 310,300 C340,310 350,340 340,360 C330,380 300,390 270,385 C240,380 210,370 200,350 C190,330 190,310 200,300 Z" 
          fill="url(#urbanGradient)" filter="url(#shadow)" opacity="0.8"/>
    
    <!-- Small neighborhood clusters -->
    <circle cx="350" cy="300" r="30" fill="url(#urbanGradient)" filter="url(#shadow)" opacity="0.7"/>
    <circle cx="480" cy="220" r="25" fill="url(#urbanGradient)" filter="url(#shadow)" opacity="0.7"/>
    <circle cx="300" cy="230" r="20" fill="url(#urbanGradient)" filter="url(#shadow)" opacity="0.7"/>
  </g>
  
  <!-- Landmarks with 3D elevation -->
  <g>
    <!-- Great Pyramids with texture and shadow -->
    <polygon points="320,150 340,110 360,150" fill="url(#pyramidTexture)" stroke="#1d1d1d" stroke-width="0.8" filter="url(#shadow)"/>
    <polygon points="280,160 300,120 320,160" fill="url(#pyramidTexture)" stroke="#1d1d1d" stroke-width="0.8" filter="url(#shadow)"/>
    <polygon points="360,160 380,120 400,160" fill="url(#pyramidTexture)" stroke="#1d1d1d" stroke-width="0.8" filter="url(#shadow)"/>
    
    <!-- Sphinx with shadow -->
    <ellipse cx="335" cy="170" rx="12" ry="6" fill="#121212" stroke="#1a1a1a" stroke-width="0.5" filter="url(#shadow)"/>
    
    <!-- Cairo University building -->
    <rect x="460" y="320" width="40" height="30" fill="#121212" stroke="#1a1a1a" stroke-width="0.5" rx="2" ry="2" filter="url(#shadow)"/>
    
    <!-- Giza Zoo area -->
    <rect x="510" y="250" width="50" height="40" fill="#0e120e" stroke="#1a1a1a" stroke-width="0.5" rx="3" ry="3" filter="url(#shadow)"/>
  </g>
  
  <!-- Main highlighted location - blue dot with enhanced glow -->
  <circle cx="330" cy="150" r="15" fill="#0044cc" opacity="0.7" filter="url(#shadow)"/>
  <circle cx="330" cy="150" r="8" fill="#0066ff" opacity="0.9">
    <animate attributeName="opacity" values="0.9;1;0.9" dur="2s" repeatCount="indefinite"/>
  </circle>
  <circle cx="330" cy="150" r="25" fill="#0055ff" opacity="0.2" filter="url(#glow)">
    <animate attributeName="r" values="25;35;25" dur="2s" repeatCount="indefinite"/>
    <animate attributeName="opacity" values="0.2;0.1;0.2" dur="2s" repeatCount="indefinite"/>
  </circle>
  
  <!-- Light rays from highlight (3D effect) -->
  <g opacity="0.1">
    <line x1="330" y1="150" x2="360" y2="120" stroke="#4488ff" stroke-width="1"/>
    <line x1="330" y1="150" x2="300" y2="120" stroke="#4488ff" stroke-width="1"/>
    <line x1="330" y1="150" x2="300" y2="180" stroke="#4488ff" stroke-width="1"/>
    <line x1="330" y1="150" x2="360" y2="180" stroke="#4488ff" stroke-width="1"/>
  </g>
  
  <!-- 3D isometric buildings for major landmarks -->
  <g>
    <!-- Cairo Tower -->
    <path d="M500,200 L510,195 L510,170 L500,175 Z" fill="#1a1a1a" stroke="#222222" stroke-width="0.5"/>
    <path d="M500,200 L490,195 L490,170 L500,175 Z" fill="#151515" stroke="#222222" stroke-width="0.5"/>
    <path d="M500,175 L510,170 L500,165 L490,170 Z" fill="#202020" stroke="#222222" stroke-width="0.5"/>
    
    <!-- Museum -->
    <path d="M380,190 L400,180 L420,190 L400,200 Z" fill="#1a1a1a" stroke="#222222" stroke-width="0.5"/>
    <path d="M400,200 L420,190 L420,200 L400,210 Z" fill="#151515" stroke="#222222" stroke-width="0.5"/>
    <path d="M400,200 L400,210 L380,200 L380,190 Z" fill="#191919" stroke="#222222" stroke-width="0.5"/>
  </g>
  
  <!-- Location labels with 3D drop shadow -->
  <g font-family="Arial, sans-serif" filter="url(#shadow)">
    <text x="322" y="105" font-weight="bold" font-size="10" fill="#5a5a5a">PYRAMIDS OF GIZA</text>
    <text x="335" y="185" font-size="9" fill="#4a4a4a">SPHINX</text>
    <text x="455" y="340" font-size="9" fill="#4a4a4a">CAIRO UNIVERSITY</text>
    <text x="510" y="270" font-size="9" fill="#4a4a4a">GIZA ZOO</text>
    <text x="620" y="200" font-size="11" fill="#3a4a5a">NILE RIVER</text>
    <text x="180" y="100" font-size="9" fill="#4a4a4a">WESTERN DESERT</text>
    <text x="220" y="340" font-size="9" fill="#4a4a4a">DOWNTOWN</text>
    <text x="450" y="380" font-size="9" fill="#4a4a4a">EL DOKKI</text>
    <text x="450" y="230" font-size="9" fill="#4a4a4a">EL AGOUZA</text>
    <text x="300" y="290" font-size="9" fill="#4a4a4a">HARAM</text>
    <text x="500" y="180" font-size="8" fill="#4a4a4a">CAIRO TOWER</text>
    <text x="385" y="215" font-size="8" fill="#4a4a4a">GRAND EGYPTIAN MUSEUM</text>
    
    <!-- Road numbers with 3D effect -->
    <g>
      <rect x="395" y="145" width="20" height="12" fill="#1a1a1a" rx="2" ry="2" stroke="#252525" stroke-width="0.5"/>
      <text x="399" y="154" font-size="8" fill="#707070">35</text>
      
      <rect x="245" y="245" width="20" height="12" fill="#1a1a1a" rx="2" ry="2" stroke="#252525" stroke-width="0.5"/>
      <text x="249" y="254" font-size="8" fill="#707070">75</text>
      
      <rect x="445" y="245" width="20" height="12" fill="#1a1a1a" rx="2" ry="2" stroke="#252525" stroke-width="0.5"/>
      <text x="449" y="254" font-size="8" fill="#707070">56</text>
    </g>
  </g>
  
  <!-- City name with 3D text effect -->
  <g font-family="Arial, sans-serif">
    <text x="350" y="45" fill="#4a4a4a" font-size="22" font-weight="bold" filter="url(#shadow)">جيزة</text>
    <text x="350" y="46" fill="#5a5a5a" font-size="22" font-weight="bold" opacity="0.4">جيزة</text>
    
    <text x="320" y="70" fill="#3a3a3a" font-size="20" font-weight="bold" filter="url(#shadow)">GIZA, EGYPT</text>
    <text x="320" y="71" fill="#4a4a4a" font-size="20" font-weight="bold" opacity="0.4">GIZA, EGYPT</text>
  </g>
  
  <!-- 3D Compass rose -->
  <g transform="translate(700, 400)" filter="url(#shadow)">
    <circle cx="0" cy="0" r="25" fill="#0d0d0d" stroke="#1a1a1a" stroke-width="1"/>
    <circle cx="0" cy="0" r="20" fill="#101010" stroke="#202020" stroke-width="0.5"/>
    
    <!-- 3D needle effect -->
    <path d="M0,-18 L5,-5 L0,-8 L-5,-5 Z" fill="#505050" stroke="#303030" stroke-width="0.5"/>
    <path d="M0,18 L5,5 L0,8 L-5,5 Z" fill="#303030" stroke="#303030" stroke-width="0.5"/>
    <path d="M18,0 L5,5 L8,0 L5,-5 Z" fill="#404040" stroke="#303030" stroke-width="0.5"/>
    <path d="M-18,0 L-5,5 L-8,0 L-5,-5 Z" fill="#404040" stroke="#303030" stroke-width="0.5"/>
    
    <text x="0" y="-5" text-anchor="middle" font-family="Arial" font-size="9" fill="#707070" font-weight="bold">N</text>
    <text x="0" y="13" text-anchor="middle" font-family="Arial" font-size="9" fill="#606060">S</text>
    <text x="13" y="4" text-anchor="middle" font-family="Arial" font-size="9" fill="#606060">E</text>
    <text x="-13" y="4" text-anchor="middle" font-family="Arial" font-size="9" fill="#606060">W</text>
  </g>
  
  <!-- 3D Scale bar -->
  <g transform="translate(50, 450)" filter="url(#shadow)">
    <rect x="0" y="0" width="100" height="4" fill="#1a1a1a" rx="1" ry="1"/>
    <rect x="0" y="0" width="50" height="4" fill="#2a2a2a" rx="1" ry="1"/>
    <rect x="0" y="-1" width="100" height="1" fill="#3a3a3a" opacity="0.5"/>
    
    <text x="0" y="-5" font-family="Arial" font-size="8" fill="#5a5a5a">0</text>
    <text x="50" y="-5" font-family="Arial" font-size="8" fill="#5a5a5a">2.5 km</text>
    <text x="100" y="-5" font-family="Arial" font-size="8" fill="#5a5a5a">5 km</text>
  </g>
  
  <!-- Elevation contour lines for 3D topography -->
  <g stroke="#1a1a1a" stroke-width="0.3" fill="none" opacity="0.3">
    <path d="M200,120 C220,110 250,105 280,110 C310,115 340,120 370,115 C400,110 430,105 460,110"/>
    <path d="M190,140 C210,130 240,125 270,130 C300,135 330,140 360,135 C390,130 420,125 450,130"/>
    <path d="M180,160 C200,150 230,145 260,150 C290,155 320,160 350,155 C380,150 410,145 440,150"/>
  </g>
  
  <!-- Floating data overlay panel for 3D UI effect -->
  <g transform="translate(80, 150)">
    <rect x="0" y="0" width="120" height="80" fill="#101010" opacity="0.7" rx="5" ry="5" stroke="#2a2a2a" stroke-width="0.5"/>
    <text x="10" y="20" font-family="Arial" font-size="9" fill="#5a5a5a" font-weight="bold">LOCATION DATA</text>
    <text x="10" y="40" font-family="Arial" font-size="8" fill="#4a4a4a">Giza Plateau</text>
    <text x="10" y="55" font-family="Arial" font-size="8" fill="#4a4a4a">Lat: 29.9773° N</text>
    <text x="10" y="70" font-family="Arial" font-size="8" fill="#4a4a4a">Long: 31.1325° E</text>
  </g>
  
  <!-- Subtle vignette overlay for 3D depth -->
  <ellipse cx="400" cy="250" rx="450" ry="300" fill="none" stroke="#000000" stroke-width="200" opacity="0.3"/>
</svg>
